<svg xmlns="http://www.w3.org/2000/svg" xmlns:xlink="http://www.w3.org/1999/xlink" fill="none" version="1.1" width="154" height="20" viewBox="0 0 154 20"><defs><clipPath id="master_svg0_155_00576"><rect x="0" y="0" width="154" height="20" rx="0"/></clipPath></defs><g clip-path="url(#master_svg0_155_00576)"><g><path d="M7.31544,0.5L0,18.4642L4.34004,18.4642L11.6443,0.5L7.31544,0.5ZM88.8479,0.5L81.5325,18.4642L85.8725,18.4642L93.1879,0.5L88.8479,0.5ZM95.66,0.5L88.3557,18.4642L92.6846,18.4642L100,0.5L95.66,0.5ZM33.7024,6.69696L31.387,6.69696L27.8859,15.6231Q27.5727,16.4285,28.0089,16.8647Q28.255,17.1108,29.6197,16.9878L28.8814,18.4755L24.5414,18.4755Q23.5459,18.5985,23.1767,17.603Q22.8859,16.8312,23.5459,15.6231L27.047,6.69696L25.0335,6.69696L25.6488,5.20926L27.6286,5.20926L28.9933,1.7417L33.3333,1.7417L31.9687,5.20926L34.3177,5.20926L33.7024,6.69696ZM15.8836,5.7572L16.1073,5.20911L11.7673,5.20911L6.31982,18.4641L10.6599,18.4641L14.8657,8.24042Q15.7717,6.5402,17.9753,6.43953C19.1162,6.3836,20.0782,6.80865,19.8321,8.41939Q19.7538,8.96749,15.7382,18.453L20.2013,18.453Q23.9261,9.09054,23.9149,8.91157Q23.8654,6.27281,22.5542,5.24741Q20.6082,3.72567,15.8836,5.7572ZM71.6797,16.6343Q71.9428,16.9775,72.4945,17.0994C75.6126,17.7959,76.9652,14.3251,77.0833,14.022C77.0885,14.0087,77.0913,14.0015,77.0918,14.001L81.0515,14.001Q77.2148,18.7102,72.9978,18.7102C63.4564,18.7102,69.4072,4.95178,78.0761,4.82873Q81.6013,4.77749,82.702,6.38566Q84.0041,8.28821,81.9128,12.5133L72.7405,12.5133Q70.8811,15.5927,71.6797,16.6343ZM41.6331,4.83996C32.9642,4.96301,27.0134,18.7214,36.5548,18.7214Q40.7718,18.7214,44.6085,14.0122L40.6488,14.0122Q39.3177,17.8377,36.0627,17.1106Q35.511,16.9887,35.2479,16.6455Q34.4493,15.6039,36.3087,12.5245L45.481,12.5245Q47.5656,8.30073,46.2621,6.39805Q45.1596,4.78871,41.6331,4.83996ZM62.0805,13.2627L67.9083,5.33203L71.1297,5.33203L61.7114,18.4752L57.7405,18.4752L57.7405,10.7906L52.047,18.4752L48.1991,18.4752L48.1991,5.33203L52.6622,5.33203L52.5391,13.5199L58.4899,5.33203L62.0805,5.33203L62.0805,13.2627ZM79.2537,6.66123Q78.8684,6.20457,77.9419,6.20457Q75.0895,6.20457,73.3558,10.9137L78.311,10.9137Q80.1057,7.67103,79.2537,6.66123ZM41.8792,10.9138L36.924,10.9138Q38.6577,6.20462,41.5101,6.20462Q42.4366,6.20462,42.8219,6.66128Q43.6739,7.67108,41.8792,10.9138Z" fill-rule="evenodd" fill="#F2BB23" fill-opacity="1"/></g><g><path d="M125.5725,7.65272L126.09100000000001,4.1631800000000005L123.1357,4.1631800000000005L122.28020000000001,9.96234L128.8649,9.96234L127.80199999999999,17.318Q127.6983,18.046,127.1409,18.5105Q126.5836,18.9749,125.8318,18.9749L119.1953,18.9749L121.2692,16.8661L124.6133,16.8661L125.2874,12.1715L118.8323,12.1715L120.2841,2.20502L122.9024,2.20502L122.9542,1.953975L122.2284,1L126.2984,1L126.1169,2.20502L129.3315,2.20502L128.5279,7.60251Q128.42419999999998,8.33054,127.8279,8.845189999999999Q127.2317,9.35983,126.4799,9.35983L123.99119999999999,9.35983L125.5725,7.65272ZM113.02537,13.6025L114.29564,4.7908L113.15499,4.7908L113.51793,2.38075L119.4804,2.38075L119.1175,4.7908L117.925,4.7908L116.7325,13.0251L117.8991,12.8243L117.5102,15.4854L111.44402,16.4393L111.83287,13.7782L113.02537,13.6025ZM106,19L108.15168,11.8954L111.57363,11.8954L109.44788,19L106,19ZM108.30723,10.94142L108.17761,6.64854L111.59956,6.64854L111.7551,10.94142L108.30723,10.94142ZM109.05902,5.69456L108.9294,1.4016739999999999L112.35135,1.4016739999999999L112.5069,5.69456L109.05902,5.69456ZM124.5874,13.2761L124.2504,15.4854L118.0287,15.4854L118.3657,13.2761L124.5874,13.2761ZM125.10589999999999,7.75314L123.2135,7.75314L123.2394,5.01674L125.1837,5.01674L125.10589999999999,7.75314ZM142.9675,5.69456L143.3563,4.99163L138.4049,4.99163L138.7159,2.83264L140.3751,2.83264L140.1936,2.28033L139.4159,1.4016739999999999L144.3414,1.4016739999999999L144.7821,2.83264L147.4523,2.83264L147.893,2.0795L147.2967,1.4016739999999999L152.7148,1.4016739999999999L151.8853,2.83264L153,2.83264L152.6889,4.99163L146.7783,4.99163L146.3894,5.69456L152.0927,5.69456L150.7187,15.2343L137.4197,15.2343L138.7937,5.69456L142.9675,5.69456ZM130.0314,18.5732L131.3536,16.188299999999998L132.5979,7.60251L131.6128,7.60251L131.9757,5.21757L137.3938,5.21757L135.9421,15.159L139.4937,16.188299999999998L151.54829999999998,16.188299999999998L151.2113,18.5732L137.4197,18.5732L134.8792,17.8452L134.4644,18.5732L130.0314,18.5732ZM136.4606,1.4016739999999999L137.5234,4.2636L133.583,4.2636L132.5201,1.4016739999999999L136.4606,1.4016739999999999ZM141.2306,10.94142L148.1522,10.94142L148.2819,9.98745L141.3602,9.98745L141.2306,10.94142ZM141.61939999999998,8.30544L148.5411,8.30544L148.6707,7.37657L141.749,7.37657L141.61939999999998,8.30544ZM147.7634,13.5523L147.893,12.6234L140.97129999999999,12.6234L140.8417,13.5523L147.7634,13.5523Z" fill="#F2BB23" fill-opacity="1"/></g></g></svg>